<svg width="1920" height="200" viewBox="0 0 1920 200" fill="none" xmlns="http://www.w3.org/2000/svg">
<rect width="1920" height="200" fill="#383838"/>
<path d="M508.48 41L508.4 28.24L502.32 38.48H498.16L492.08 28.68V41H483.48V13H491.24L500.36 27.92L509.24 13H517L517.08 41H508.48ZM532.916 41.4C530.489 41.4 528.302 40.92 526.356 39.96C524.436 38.9733 522.929 37.6267 521.836 35.92C520.742 34.1867 520.196 32.2267 520.196 30.04C520.196 27.8533 520.742 25.9067 521.836 24.2C522.929 22.4667 524.436 21.12 526.356 20.16C528.302 19.2 530.489 18.72 532.916 18.72C535.369 18.72 537.556 19.2 539.476 20.16C541.422 21.12 542.929 22.4667 543.996 24.2C545.089 25.9067 545.636 27.8533 545.636 30.04C545.636 32.2267 545.089 34.1867 543.996 35.92C542.929 37.6267 541.422 38.9733 539.476 39.96C537.556 40.92 535.369 41.4 532.916 41.4ZM532.916 34.36C533.956 34.36 534.809 33.9867 535.476 33.24C536.142 32.4667 536.476 31.4 536.476 30.04C536.476 28.68 536.142 27.6267 535.476 26.88C534.809 26.1333 533.956 25.76 532.916 25.76C531.876 25.76 531.022 26.1333 530.356 26.88C529.689 27.6267 529.356 28.68 529.356 30.04C529.356 31.4 529.689 32.4667 530.356 33.24C531.022 33.9867 531.876 34.36 532.916 34.36ZM559.913 41.4C557.433 41.4 555.206 40.92 553.233 39.96C551.286 39 549.753 37.6533 548.633 35.92C547.539 34.1867 546.993 32.2267 546.993 30.04C546.993 27.8533 547.539 25.9067 548.633 24.2C549.753 22.4667 551.286 21.12 553.233 20.16C555.206 19.2 557.433 18.72 559.913 18.72C562.579 18.72 564.859 19.2933 566.753 20.44C568.646 21.5867 569.953 23.1733 570.673 25.2L563.673 28.64C562.819 26.72 561.553 25.76 559.873 25.76C558.806 25.76 557.913 26.1333 557.193 26.88C556.499 27.6267 556.153 28.68 556.153 30.04C556.153 31.4267 556.499 32.4933 557.193 33.24C557.913 33.9867 558.806 34.36 559.873 34.36C561.553 34.36 562.819 33.4 563.673 31.48L570.673 34.92C569.953 36.9467 568.646 38.5333 566.753 39.68C564.859 40.8267 562.579 41.4 559.913 41.4ZM583.919 33.72H582.199V41H573.159V19.12H582.199V26.8H584.159L588.959 19.12H598.479L591.439 29.6L598.919 41H588.279L583.919 33.72ZM611.627 41.4C609.2 41.4 607.013 40.92 605.067 39.96C603.147 38.9733 601.64 37.6267 600.547 35.92C599.453 34.1867 598.907 32.2267 598.907 30.04C598.907 27.8533 599.453 25.9067 600.547 24.2C601.64 22.4667 603.147 21.12 605.067 20.16C607.013 19.2 609.2 18.72 611.627 18.72C614.08 18.72 616.267 19.2 618.187 20.16C620.133 21.12 621.64 22.4667 622.707 24.2C623.8 25.9067 624.347 27.8533 624.347 30.04C624.347 32.2267 623.8 34.1867 622.707 35.92C621.64 37.6267 620.133 38.9733 618.187 39.96C616.267 40.92 614.08 41.4 611.627 41.4ZM611.627 34.36C612.667 34.36 613.52 33.9867 614.187 33.24C614.853 32.4667 615.187 31.4 615.187 30.04C615.187 28.68 614.853 27.6267 614.187 26.88C613.52 26.1333 612.667 25.76 611.627 25.76C610.587 25.76 609.733 26.1333 609.067 26.88C608.4 27.6267 608.067 28.68 608.067 30.04C608.067 31.4 608.4 32.4667 609.067 33.24C609.733 33.9867 610.587 34.36 611.627 34.36ZM645.743 29.52C648.143 30.4267 649.343 32.12 649.343 34.6C649.343 36.6 648.557 38.1733 646.983 39.32C645.41 40.44 643.103 41 640.063 41H627.143V19.12H639.423C642.357 19.12 644.637 19.6267 646.263 20.64C647.89 21.6267 648.703 23.0267 648.703 24.84C648.703 25.8533 648.45 26.76 647.943 27.56C647.437 28.36 646.703 29.0133 645.743 29.52ZM635.063 27.76H638.623C639.93 27.76 640.583 27.24 640.583 26.2C640.583 25.6933 640.423 25.32 640.103 25.08C639.81 24.84 639.317 24.72 638.623 24.72H635.063V27.76ZM639.263 35.4C640.57 35.4 641.223 34.8533 641.223 33.76C641.223 32.72 640.57 32.2 639.263 32.2H635.063V35.4H639.263ZM663.78 41.4C661.3 41.4 659.073 40.92 657.1 39.96C655.153 39 653.62 37.6533 652.5 35.92C651.406 34.1867 650.86 32.2267 650.86 30.04C650.86 27.8533 651.406 25.9067 652.5 24.2C653.62 22.4667 655.153 21.12 657.1 20.16C659.073 19.2 661.3 18.72 663.78 18.72C666.446 18.72 668.726 19.2933 670.62 20.44C672.513 21.5867 673.82 23.1733 674.54 25.2L667.54 28.64C666.686 26.72 665.42 25.76 663.74 25.76C662.673 25.76 661.78 26.1333 661.06 26.88C660.366 27.6267 660.02 28.68 660.02 30.04C660.02 31.4267 660.366 32.4933 661.06 33.24C661.78 33.9867 662.673 34.36 663.74 34.36C665.42 34.36 666.686 33.4 667.54 31.48L674.54 34.92C673.82 36.9467 672.513 38.5333 670.62 39.68C668.726 40.8267 666.446 41.4 663.78 41.4ZM687.786 33.72H686.066V41H677.026V19.12H686.066V26.8H688.026L692.826 19.12H702.346L695.306 29.6L702.786 41H692.146L687.786 33.72ZM704.8 19.12H713.8V29L721.36 19.12H729.68V41H720.68V31.08L713.16 41H704.8V19.12ZM733.901 19.12H742.901V29L750.461 19.12H758.781V41H749.781V31.08L742.261 41H733.901V19.12ZM745.741 17.32C742.968 17.32 740.941 16.76 739.661 15.64C738.381 14.4933 737.741 12.72 737.741 10.32H743.541C743.541 11.2 743.688 11.8667 743.981 12.32C744.301 12.7467 744.875 12.96 745.701 12.96C747.195 12.96 747.941 12.08 747.941 10.32H753.821C753.821 12.72 753.168 14.4933 751.861 15.64C750.581 16.76 748.541 17.32 745.741 17.32ZM493.88 82.72H492.16V90H483.12V68.12H492.16V75.8H494.12L498.92 68.12H508.44L501.4 78.6L508.88 90H498.24L493.88 82.72ZM521.588 90.4C519.161 90.4 516.974 89.92 515.028 88.96C513.108 87.9733 511.601 86.6267 510.508 84.92C509.414 83.1867 508.868 81.2267 508.868 79.04C508.868 76.8533 509.414 74.9067 510.508 73.2C511.601 71.4667 513.108 70.12 515.028 69.16C516.974 68.2 519.161 67.72 521.588 67.72C524.041 67.72 526.228 68.2 528.148 69.16C530.094 70.12 531.601 71.4667 532.668 73.2C533.761 74.9067 534.308 76.8533 534.308 79.04C534.308 81.2267 533.761 83.1867 532.668 84.92C531.601 86.6267 530.094 87.9733 528.148 88.96C526.228 89.92 524.041 90.4 521.588 90.4ZM521.588 83.36C522.628 83.36 523.481 82.9867 524.148 82.24C524.814 81.4667 525.148 80.4 525.148 79.04C525.148 77.68 524.814 76.6267 524.148 75.88C523.481 75.1333 522.628 74.76 521.588 74.76C520.548 74.76 519.694 75.1333 519.028 75.88C518.361 76.6267 518.028 77.68 518.028 79.04C518.028 80.4 518.361 81.4667 519.028 82.24C519.694 82.9867 520.548 83.36 521.588 83.36ZM560.236 68.12V90H551.196V75.16H547.076L546.956 78C546.849 80.8267 546.556 83.1467 546.076 84.96C545.596 86.7733 544.796 88.1733 543.676 89.16C542.582 90.12 541.076 90.6 539.156 90.6C537.956 90.6 536.556 90.4 534.956 90L535.316 82.68C535.742 82.7333 536.049 82.76 536.236 82.76C537.329 82.76 538.049 82.3733 538.396 81.6C538.742 80.8 538.956 79.48 539.036 77.64L539.356 68.12H560.236ZM588.087 68.12V90H579.047V75.16H574.927L574.807 78C574.701 80.8267 574.407 83.1467 573.927 84.96C573.447 86.7733 572.647 88.1733 571.527 89.16C570.434 90.12 568.927 90.6 567.007 90.6C565.807 90.6 564.407 90.4 562.807 90L563.167 82.68C563.594 82.7333 563.901 82.76 564.087 82.76C565.181 82.76 565.901 82.3733 566.247 81.6C566.594 80.8 566.807 79.48 566.887 77.64L567.207 68.12H588.087ZM615.339 79.04C615.339 79.1733 615.299 79.88 615.219 81.16H600.019C600.339 81.9867 600.872 82.6267 601.619 83.08C602.365 83.5067 603.299 83.72 604.419 83.72C605.379 83.72 606.179 83.6 606.819 83.36C607.485 83.12 608.205 82.7067 608.979 82.12L613.699 86.88C611.565 89.2267 608.379 90.4 604.139 90.4C601.499 90.4 599.179 89.92 597.179 88.96C595.179 87.9733 593.632 86.6133 592.539 84.88C591.445 83.1467 590.899 81.2 590.899 79.04C590.899 76.8533 591.432 74.9067 592.499 73.2C593.592 71.4667 595.072 70.12 596.939 69.16C598.832 68.2 600.952 67.72 603.299 67.72C605.512 67.72 607.525 68.16 609.339 69.04C611.179 69.92 612.632 71.2133 613.699 72.92C614.792 74.6267 615.339 76.6667 615.339 79.04ZM603.379 73.88C602.445 73.88 601.672 74.1333 601.059 74.64C600.445 75.1467 600.045 75.8667 599.859 76.8H606.899C606.712 75.8933 606.312 75.1867 605.699 74.68C605.085 74.1467 604.312 73.88 603.379 73.88ZM645.789 82.92V94.32H637.429V90H625.349V94.32H616.989V82.92H617.629C618.909 82.92 619.802 82.32 620.309 81.12C620.815 79.8933 621.109 78.1333 621.189 75.84L621.469 68.12H642.869V82.92H645.789ZM629.309 76.52C629.255 78.2 629.135 79.5333 628.949 80.52C628.789 81.48 628.455 82.28 627.949 82.92H633.869V75.16H629.349L629.309 76.52ZM671.953 82.72H670.593V90H661.673V82.72H660.233L656.913 90H646.272L652.553 78.72L646.713 68.12H656.233L660.033 75.8H661.673V68.12H670.593V75.8H672.153L675.993 68.12H685.513L679.673 78.72L685.953 90H675.273L671.953 82.72ZM483.12 117.12H492.12V127L499.68 117.12H508V139H499V129.08L491.48 139H483.12V117.12ZM512.222 117.12H521.222V124.8H527.382V117.12H536.382V139H527.382V131.88H521.222V139H512.222V117.12ZM573.78 127.96C573.78 131.4 572.633 134.093 570.34 136.04C568.073 137.987 564.767 139.147 560.42 139.52V146.76H552.58V139.52C548.233 139.147 544.913 138 542.62 136.08C540.353 134.133 539.22 131.427 539.22 127.96C539.22 124.573 540.34 121.947 542.58 120.08C544.847 118.187 548.18 117.08 552.58 116.76V109.32H560.42V116.76C564.767 117.133 568.073 118.253 570.34 120.12C572.633 121.987 573.78 124.6 573.78 127.96ZM547.78 127.96C547.78 129.56 548.14 130.773 548.86 131.6C549.58 132.4 550.82 132.933 552.58 133.2V123.08C550.82 123.32 549.58 123.827 548.86 124.6C548.14 125.347 547.78 126.467 547.78 127.96ZM560.42 133.2C562.18 132.933 563.42 132.4 564.14 131.6C564.887 130.773 565.26 129.56 565.26 127.96C565.26 126.467 564.887 125.347 564.14 124.6C563.42 123.827 562.18 123.32 560.42 123.08V133.2ZM587.916 139.4C585.489 139.4 583.302 138.92 581.356 137.96C579.436 136.973 577.929 135.627 576.836 133.92C575.742 132.187 575.196 130.227 575.196 128.04C575.196 125.853 575.742 123.907 576.836 122.2C577.929 120.467 579.436 119.12 581.356 118.16C583.302 117.2 585.489 116.72 587.916 116.72C590.369 116.72 592.556 117.2 594.476 118.16C596.422 119.12 597.929 120.467 598.996 122.2C600.089 123.907 600.636 125.853 600.636 128.04C600.636 130.227 600.089 132.187 598.996 133.92C597.929 135.627 596.422 136.973 594.476 137.96C592.556 138.92 590.369 139.4 587.916 139.4ZM587.916 132.36C588.956 132.36 589.809 131.987 590.476 131.24C591.142 130.467 591.476 129.4 591.476 128.04C591.476 126.68 591.142 125.627 590.476 124.88C589.809 124.133 588.956 123.76 587.916 123.76C586.876 123.76 586.022 124.133 585.356 124.88C584.689 125.627 584.356 126.68 584.356 128.04C584.356 129.4 584.689 130.467 585.356 131.24C586.022 131.987 586.876 132.36 587.916 132.36ZM618.033 116.72C619.953 116.72 621.713 117.187 623.313 118.12C624.939 119.027 626.219 120.347 627.153 122.08C628.113 123.813 628.593 125.813 628.593 128.08C628.593 130.347 628.113 132.347 627.153 134.08C626.219 135.787 624.939 137.107 623.313 138.04C621.713 138.947 619.953 139.4 618.033 139.4C615.606 139.4 613.753 138.773 612.473 137.52V146.76H603.433V117.12H612.033V118.92C613.339 117.453 615.339 116.72 618.033 116.72ZM615.873 132.36C616.913 132.36 617.766 131.987 618.433 131.24C619.099 130.493 619.433 129.44 619.433 128.08C619.433 126.72 619.099 125.667 618.433 124.92C617.766 124.147 616.913 123.76 615.873 123.76C614.833 123.76 613.979 124.147 613.313 124.92C612.646 125.667 612.313 126.72 612.313 128.08C612.313 129.44 612.646 130.493 613.313 131.24C613.979 131.987 614.833 132.36 615.873 132.36ZM652.598 139L652.558 129.2L647.918 137.28H644.118L639.638 129V139H631.518V117.12H641.078L646.278 127.32L652.158 117.12H660.638L660.718 139H652.598ZM674.237 116.72C678.077 116.72 681.01 117.587 683.037 119.32C685.064 121.027 686.077 123.667 686.077 127.24V139H677.677V136.12C676.637 138.307 674.57 139.4 671.477 139.4C669.744 139.4 668.264 139.107 667.037 138.52C665.837 137.907 664.917 137.093 664.277 136.08C663.664 135.04 663.357 133.88 663.357 132.6C663.357 130.44 664.184 128.8 665.837 127.68C667.49 126.56 669.997 126 673.357 126H676.997C676.704 124.293 675.33 123.44 672.877 123.44C671.89 123.44 670.89 123.6 669.877 123.92C668.864 124.213 667.997 124.627 667.277 125.16L664.397 119.2C665.65 118.427 667.157 117.827 668.917 117.4C670.704 116.947 672.477 116.72 674.237 116.72ZM674.197 133.96C674.837 133.96 675.41 133.787 675.917 133.44C676.424 133.093 676.797 132.573 677.037 131.88V130.36H674.797C672.957 130.36 672.037 130.973 672.037 132.2C672.037 132.707 672.224 133.133 672.597 133.48C672.997 133.8 673.53 133.96 674.197 133.96ZM715.961 131.92V143.32H707.601V139H689.761V117.12H698.761V131.92H704.041V117.12H713.041V131.92H715.961ZM718.589 117.12H727.589V127L735.149 117.12H743.469V139H734.469V129.08L726.949 139H718.589V117.12ZM758.97 139.4C756.544 139.4 754.357 138.92 752.41 137.96C750.49 136.973 748.984 135.627 747.89 133.92C746.797 132.187 746.25 130.227 746.25 128.04C746.25 125.853 746.797 123.907 747.89 122.2C748.984 120.467 750.49 119.12 752.41 118.16C754.357 117.2 756.544 116.72 758.97 116.72C761.424 116.72 763.61 117.2 765.53 118.16C767.477 119.12 768.984 120.467 770.05 122.2C771.144 123.907 771.69 125.853 771.69 128.04C771.69 130.227 771.144 132.187 770.05 133.92C768.984 135.627 767.477 136.973 765.53 137.96C763.61 138.92 761.424 139.4 758.97 139.4ZM758.97 132.36C760.01 132.36 760.864 131.987 761.53 131.24C762.197 130.467 762.53 129.4 762.53 128.04C762.53 126.68 762.197 125.627 761.53 124.88C760.864 124.133 760.01 123.76 758.97 123.76C757.93 123.76 757.077 124.133 756.41 124.88C755.744 125.627 755.41 126.68 755.41 128.04C755.41 129.4 755.744 130.467 756.41 131.24C757.077 131.987 757.93 132.36 758.97 132.36ZM774.487 117.12H783.487V124.8H789.647V117.12H798.647V139H789.647V131.88H783.487V139H774.487V117.12ZM802.886 117.12H811.886V124.8H818.046V117.12H827.046V139H818.046V131.88H811.886V139H802.886V117.12ZM844.804 123.72C847.711 123.72 849.884 124.36 851.324 125.64C852.791 126.893 853.524 128.707 853.524 131.08C853.524 133.56 852.671 135.507 850.964 136.92C849.257 138.307 846.831 139 843.684 139H831.284V117.12H840.284V123.72H844.804ZM854.844 117.12H863.844V139H854.844V117.12ZM842.764 132.92C844.071 132.92 844.724 132.253 844.724 130.92C844.724 129.64 844.071 129 842.764 129H840.284V132.92H842.764ZM882.001 139L879.001 134.32L875.641 139H865.841L874.121 128.16L866.081 117.12H876.281L879.401 121.76L882.681 117.12H892.161L884.121 127.76L892.361 139H882.001ZM503.84 173.16H497.16V188H488.16V173.16H481.48V166.12H503.84V173.16ZM528.659 177.04C528.659 177.173 528.619 177.88 528.539 179.16H513.339C513.659 179.987 514.192 180.627 514.939 181.08C515.686 181.507 516.619 181.72 517.739 181.72C518.699 181.72 519.499 181.6 520.139 181.36C520.806 181.12 521.526 180.707 522.299 180.12L527.019 184.88C524.886 187.227 521.699 188.4 517.459 188.4C514.819 188.4 512.499 187.92 510.499 186.96C508.499 185.973 506.952 184.613 505.859 182.88C504.766 181.147 504.219 179.2 504.219 177.04C504.219 174.853 504.752 172.907 505.819 171.2C506.912 169.467 508.392 168.12 510.259 167.16C512.152 166.2 514.272 165.72 516.619 165.72C518.832 165.72 520.846 166.16 522.659 167.04C524.499 167.92 525.952 169.213 527.019 170.92C528.112 172.627 528.659 174.667 528.659 177.04ZM516.699 171.88C515.766 171.88 514.992 172.133 514.379 172.64C513.766 173.147 513.366 173.867 513.179 174.8H520.219C520.032 173.893 519.632 173.187 519.019 172.68C518.406 172.147 517.632 171.88 516.699 171.88ZM545.243 188L542.243 183.32L538.883 188H529.083L537.363 177.16L529.323 166.12H539.523L542.643 170.76L545.923 166.12H555.403L547.363 176.76L555.603 188H545.243ZM557.612 166.12H566.612V173.8H572.772V166.12H581.772V188H572.772V180.88H566.612V188H557.612V166.12ZM597.291 188.4C594.864 188.4 592.677 187.92 590.731 186.96C588.811 185.973 587.304 184.627 586.211 182.92C585.117 181.187 584.571 179.227 584.571 177.04C584.571 174.853 585.117 172.907 586.211 171.2C587.304 169.467 588.811 168.12 590.731 167.16C592.677 166.2 594.864 165.72 597.291 165.72C599.744 165.72 601.931 166.2 603.851 167.16C605.797 168.12 607.304 169.467 608.371 171.2C609.464 172.907 610.011 174.853 610.011 177.04C610.011 179.227 609.464 181.187 608.371 182.92C607.304 184.627 605.797 185.973 603.851 186.96C601.931 187.92 599.744 188.4 597.291 188.4ZM597.291 181.36C598.331 181.36 599.184 180.987 599.851 180.24C600.517 179.467 600.851 178.4 600.851 177.04C600.851 175.68 600.517 174.627 599.851 173.88C599.184 173.133 598.331 172.76 597.291 172.76C596.251 172.76 595.397 173.133 594.731 173.88C594.064 174.627 593.731 175.68 593.731 177.04C593.731 178.4 594.064 179.467 594.731 180.24C595.397 180.987 596.251 181.36 597.291 181.36ZM635.939 166.12V188H626.899V173.16H622.779L622.659 176C622.552 178.827 622.259 181.147 621.779 182.96C621.299 184.773 620.499 186.173 619.379 187.16C618.285 188.12 616.779 188.6 614.859 188.6C613.659 188.6 612.259 188.4 610.659 188L611.019 180.68C611.445 180.733 611.752 180.76 611.939 180.76C613.032 180.76 613.752 180.373 614.099 179.6C614.445 178.8 614.659 177.48 614.739 175.64L615.059 166.12H635.939ZM651.47 188.4C649.044 188.4 646.857 187.92 644.91 186.96C642.99 185.973 641.484 184.627 640.39 182.92C639.297 181.187 638.75 179.227 638.75 177.04C638.75 174.853 639.297 172.907 640.39 171.2C641.484 169.467 642.99 168.12 644.91 167.16C646.857 166.2 649.044 165.72 651.47 165.72C653.924 165.72 656.11 166.2 658.03 167.16C659.977 168.12 661.484 169.467 662.55 171.2C663.644 172.907 664.19 174.853 664.19 177.04C664.19 179.227 663.644 181.187 662.55 182.92C661.484 184.627 659.977 185.973 658.03 186.96C656.11 187.92 653.924 188.4 651.47 188.4ZM651.47 181.36C652.51 181.36 653.364 180.987 654.03 180.24C654.697 179.467 655.03 178.4 655.03 177.04C655.03 175.68 654.697 174.627 654.03 173.88C653.364 173.133 652.51 172.76 651.47 172.76C650.43 172.76 649.577 173.133 648.91 173.88C648.244 174.627 647.91 175.68 647.91 177.04C647.91 178.4 648.244 179.467 648.91 180.24C649.577 180.987 650.43 181.36 651.47 181.36ZM686.107 173.16H675.987V188H666.987V166.12H686.107V173.16ZM688.706 166.12H697.706V176L705.266 166.12H713.586V188H704.586V178.08L697.066 188H688.706V166.12ZM717.808 166.12H726.808V176L734.368 166.12H742.688V188H733.688V178.08L726.168 188H717.808V166.12ZM729.648 164.32C726.874 164.32 724.848 163.76 723.568 162.64C722.288 161.493 721.648 159.72 721.648 157.32H727.447C727.447 158.2 727.594 158.867 727.888 159.32C728.208 159.747 728.781 159.96 729.608 159.96C731.101 159.96 731.848 159.08 731.848 157.32H737.727C737.727 159.72 737.074 161.493 735.768 162.64C734.488 163.76 732.448 164.32 729.648 164.32Z" fill="#3DFF3D"/>
</svg>
